<svg xmlns="http://www.w3.org/2000/svg" fill-rule="evenodd" viewBox="0 0 7230 5419" shape-rendering="geometricPrecision" text-rendering="geometricPrecision" image-rendering="optimizeQuality" clip-rule="evenodd"><defs><style type="text/css"><![CDATA[
    .fil0 {fill:#FEFEFE}
   ]]></style></defs><g id="Слой_x0020_1"><path d="M6178 0h863c104 0 189 85 189 189 0 105-85 190-189 190h-868c-74 2-136 49-161 115-353 968-708 1935-1061 2903 166 97 272 275 272 478 0 307-249 556-556 556H1169c-103 0-187-85-187-188s84-188 187-188h2972l529-5c96-1 174-80 174-176 0-98-79-177-177-177-1149 0-2298-1-3447-2-253-3-471-166-537-411L34 1482c-105-288 43-607 332-712 133-49 267-37 406-37h4746l138-367c87-221 282-366 522-366zm-798 1112H551c-108 2-206 110-171 218 17 53 48 130 68 184l593 1645c35 96 62 160 179 160h2709l524-4c87 0 145-53 173-132l754-2071zM1579 4713c195 0 353 158 353 353s-158 353-353 353-353-158-353-353 158-353 353-353zM4409 4713c195 0 353 158 353 353s-158 353-353 353-353-158-353-353 158-353 353-353z" class="fil0"/></g></svg>